<svg width="1488" height="600" viewBox="0 0 1488 600" fill="none" xmlns="http://www.w3.org/2000/svg">
<path d="M15 1C15 1 117.442 269.863 313.489 307.541C498.876 343.171 576.025 182.254 767.356 171.956C1080.69 155.089 1487 397.804 1487 397.804" stroke="white"/>
<path d="M1 39.4229C1 39.4229 104.416 319.197 302.328 358.405C489.478 395.48 567.361 228.033 760.511 217.317C1076.83 199.766 1487 487.224 1487 487.224" stroke="white"/>
<path d="M1 102.297C1 102.297 103.859 372.032 300.706 409.833C486.849 445.578 564.312 284.14 756.422 273.807C1071.04 256.886 1467 599 1467 599" stroke="white"/>
</svg>
